<?xml version="1.0"?>
<svg xmlns="http://www.w3.org/2000/svg" id="Capa_1" enable-background="new 0 0 512 512" height="512px" viewBox="0 0 512 512" width="512px"><g><g><path d="m502 471h-56v-139.236c23.092 4.62 46.561-2.693 63.071-19.202 3.905-3.905 3.905-10.237 0-14.143l-73.45-73.45c-3.905-3.905-10.236-3.905-14.143 0-3.905 3.905-3.905 10.237 0 14.142l65.677 65.678c-19.934 13.251-46.297 10.267-62.936-6.37l-214.5-214.49c-1.873-1.875-4.417-2.929-7.069-2.929h-66.65c-11.028 0-20-8.972-20-20v-20h107.368c13.316 13.316 119.985 119.985 134.52 134.52 3.904 3.904 10.237 3.904 14.142 0 3.905-3.905 3.905-10.237 0-14.143l-59.457-59.457.92-.92h62.507c22.056 0 40-17.944 40-40v-30c0-5.523-4.477-10-10-10h-121.51c-2.652 0-5.196 1.054-7.071 2.929l-21.419 21.419-21.419-21.419c-1.875-1.875-4.419-2.929-7.071-2.929h-121.51c-5.523 0-10 4.477-10 10v30c0 22.056 17.944 40 40 40h62.508l.92.92-196.499 196.499c-3.905 3.905-3.905 10.237 0 14.143 16.558 16.557 40.039 23.81 63.071 19.202v139.236h-56c-5.523 0-10 4.477-10 10s4.477 10 10 10h492c5.523 0 10-4.477 10-10s-4.477-10-10-10zm-213.367-430h107.367v20c0 11.028-8.972 20-20 20h-66.65c-2.652 0-5.196 1.054-7.071 2.929l-3.849 3.849-28.287-28.288zm-202.633 330h100v40h-100zm120 0h40v12.92c0 31.822-14.987 60.922-40 79.291zm60 12.92v-12.92h40v100h-78.124c24.126-22.281 38.124-53.739 38.124-87.08zm160-12.92v40h-100v-40zm-100 60h100v40h-100zm100-106.499v26.499c-11.828 0-328.077 0-340 0v-26.499c5.823-3.18 11.159-7.178 15.921-11.939l154.08-154.071 154.078 154.071c4.762 4.761 10.099 8.76 15.921 11.939zm-401.156-19.712 188.727-188.727 28.288 28.287-154.079 154.07c-16.627 16.625-42.977 19.637-62.936 6.37zm61.156 126.211h100v40h-100z" data-original="#000000" class="active-path" data-old_color="#000000" fill="#FFFFFF"/><path d="m256 231c-22.056 0-40 17.944-40 40s17.944 40 40 40 40-17.944 40-40-17.944-40-40-40zm0 60c-11.028 0-20-8.972-20-20s8.972-20 20-20 20 8.972 20 20-8.972 20-20 20z" data-original="#000000" class="active-path" data-old_color="#000000" fill="#FFFFFF"/><circle cx="396" cy="200.999" r="10" data-original="#000000" class="active-path" data-old_color="#000000" fill="#FFFFFF"/></g></g> </svg>
