<?xml version="1.0"?>
<svg xmlns="http://www.w3.org/2000/svg" xmlns:xlink="http://www.w3.org/1999/xlink" version="1.1" id="Layer_1" x="0px" y="0px" viewBox="0 0 512 512" style="enable-background:new 0 0 512 512;" xml:space="preserve" width="512px" height="512px" class=""><g><g>
	<g>
		<path d="M476.877,86.232H35.123C15.757,86.232,0,101.988,0,121.355v269.29c0,19.367,15.757,35.123,35.123,35.123h441.754    c19.367,0,35.123-15.757,35.123-35.123v-269.29C512,101.988,496.243,86.232,476.877,86.232z M495.832,390.645    c0,10.469-8.486,18.955-18.955,18.955H35.123c-10.469,0-18.955-8.486-18.955-18.955v-269.29c0-10.469,8.486-18.955,18.955-18.955    h2.071l145.402,138.132c-1.274,1.514-2.878,3.136-4.464,4.731c-5.408,5.437-12.136,12.205-12.136,21.516    s6.728,16.078,12.135,21.516c2.814,2.831,5.725,5.758,6.648,7.985c1.02,2.46,1.056,6.758,1.093,10.914    c0.068,7.916,0.147,16.888,6.486,23.228c6.339,6.34,15.313,6.418,23.228,6.486c4.156,0.036,8.454,0.073,10.914,1.093    c2.227,0.924,5.154,3.834,7.985,6.648c5.437,5.407,12.205,12.135,21.516,12.135c9.311,0,16.078-6.728,21.516-12.135    c2.831-2.814,5.758-5.725,7.985-6.648c2.46-1.02,6.758-1.056,10.914-1.093c7.916-0.068,16.888-0.147,23.228-6.486    c6.34-6.339,6.418-15.313,6.486-23.228c0.036-4.156,0.073-8.454,1.093-10.914c0.924-2.227,3.834-5.155,6.648-7.985    c5.407-5.437,12.135-12.205,12.135-21.516s-6.728-16.078-12.135-21.516c-1.586-1.595-3.191-3.218-4.465-4.732l43.757-41.569    c3.296-3.131,3.363-8.363,0.149-11.578c-3.1-3.1-8.106-3.164-11.284-0.144l-35.995,34.196c-0.263-6.528-1.337-13.249-6.388-18.299    c-6.339-6.34-15.313-6.418-23.228-6.486c-4.156-0.036-8.454-0.073-10.914-1.093c-2.227-0.924-5.154-3.834-7.985-6.648    c-5.438-5.407-12.206-12.135-21.517-12.135c-9.311,0-16.078,6.728-21.516,12.135c-2.831,2.814-5.758,5.725-7.985,6.648    c-2.46,1.02-6.758,1.056-10.914,1.093c-7.916,0.068-16.888,0.147-23.228,6.486c-5.051,5.051-6.125,11.773-6.388,18.3L60.668,102.4    h390.664l-57.304,54.439c-3.296,3.131-3.363,8.363-0.149,11.578c3.1,3.1,8.106,3.164,11.284,0.144l69.643-66.161h2.071    c10.469,0,18.955,8.486,18.955,18.955V390.645z M189.597,256.663c3.919-3.942,7.972-8.018,10.118-13.191    c2.225-5.367,2.275-11.264,2.325-16.967c0.04-4.578,0.089-10.273,1.752-11.936c1.661-1.662,7.357-1.711,11.933-1.75    c5.703-0.049,11.6-0.1,16.967-2.325c5.173-2.145,9.249-6.198,13.191-10.118c3.504-3.484,7.475-7.432,10.116-7.432    c2.641,0,6.613,3.948,10.116,7.433c3.942,3.919,8.018,7.972,13.191,10.118c5.367,2.225,11.264,2.275,16.967,2.325    c4.578,0.04,10.273,0.089,11.936,1.752c1.662,1.661,1.711,7.357,1.75,11.933c0.049,5.703,0.1,11.6,2.325,16.967    c2.145,5.173,6.198,9.249,10.118,13.191c3.484,3.504,7.432,7.475,7.432,10.116c0,2.641-3.948,6.613-7.433,10.116    c-3.919,3.942-7.972,8.018-10.118,13.191c-2.225,5.367-2.275,11.264-2.325,16.967c-0.04,4.578-0.089,10.273-1.752,11.936    c-1.661,1.662-7.357,1.711-11.933,1.75c-5.703,0.049-11.6,0.1-16.967,2.325c-5.173,2.145-9.249,6.198-13.191,10.118    c-3.504,3.484-7.475,7.432-10.116,7.432c-2.641,0-6.613-3.948-10.116-7.433c-3.942-3.919-8.018-7.972-13.191-10.118    c-5.367-2.225-11.264-2.275-16.967-2.325c-4.578-0.04-10.273-0.089-11.936-1.752c-1.662-1.661-1.711-7.357-1.75-11.933    c-0.049-5.703-0.1-11.6-2.325-16.967c-2.145-5.173-6.198-9.249-10.118-13.191c-3.484-3.504-7.432-7.475-7.432-10.116    C182.164,264.138,186.113,260.166,189.597,256.663z" data-original="#000000" class="active-path" data-old_color="#000000" fill="#FFFFFF"/>
	</g>
</g><g>
	<g>
		<path d="M256,215.579c-28.231,0-51.2,22.969-51.2,51.2s22.969,51.2,51.2,51.2s51.2-22.969,51.2-51.2S284.231,215.579,256,215.579z     M256,301.811c-19.316,0-35.032-15.716-35.032-35.032c0-19.316,15.716-35.032,35.032-35.032s35.032,15.716,35.032,35.032    S275.316,301.811,256,301.811z" data-original="#000000" class="active-path" data-old_color="#000000" fill="#FFFFFF"/>
	</g>
</g></g> </svg>
