<?xml version="1.0"?>
<svg xmlns="http://www.w3.org/2000/svg" xmlns:xlink="http://www.w3.org/1999/xlink" version="1.1" id="Capa_1" x="0px" y="0px" viewBox="0 0 512 512" style="enable-background:new 0 0 512 512;" xml:space="preserve" width="512px" height="512px"><g><g>
	<g>
		<path d="M316.992,0C209.464,0,121.984,87.481,121.984,195.008c0,48.376,17.714,92.689,46.986,126.808l-15.824,15.824    l-42.555-42.302l-10.575,10.575c-17.336,17.335-24.423,40.87-21.218,63.646l-65.639,65.639c-17.546,17.546-17.546,46.096,0,63.642    c17.546,17.546,46.096,17.547,63.643,0l65.606-65.606c23.032,3.338,46.915-3.979,64.187-21.251l10.639-10.638l-42.81-42.555    l15.76-15.76c34.119,29.272,78.432,46.986,126.808,46.986C424.519,390.016,512,302.536,512,195.008S424.519,0,316.992,0z     M55.588,477.626c-5.848,5.849-15.365,5.849-21.214,0s-5.849-15.366,0-21.214l56.094-56.094c2.757,4.152,5.944,8.061,9.548,11.665    c3.631,3.631,7.545,6.81,11.67,9.543L55.588,477.626z M121.23,390.77c-14.073-14.073-16.685-34.827-8.78-51.283l60.472,60.111    C156.05,407.668,135.186,404.727,121.23,390.77z M316.992,360.015c-90.985,0-165.007-74.022-165.007-165.007    S226.007,30.002,316.992,30.002s165.007,74.022,165.007,165.007S407.977,360.015,316.992,360.015z" data-original="#000000" class="active-path" data-old_color="#000000" fill="#FFFFFF"/>
	</g>
</g><g>
	<g>
		<path d="M316.992,60.003c-74.442,0-135.006,60.564-135.006,135.006s60.563,135.006,135.006,135.006    s135.006-60.563,135.006-135.006S391.434,60.003,316.992,60.003z M316.992,300.013c-57.899,0-105.004-47.105-105.004-105.004    S259.092,90.004,316.992,90.004s105.004,47.105,105.004,105.004S374.891,300.013,316.992,300.013z" data-original="#000000" class="active-path" data-old_color="#000000" fill="#FFFFFF"/>
	</g>
</g></g> </svg>
